<svg width="241" height="95" viewBox="0 0 241 95" fill="none" xmlns="http://www.w3.org/2000/svg">
<path d="M162.811 9.06997C163.173 8.31157 163.842 7.91307 164.747 7.91542C166.343 7.9199 167.308 9.33729 166.945 11.1453C166.602 12.8556 164.669 13.6464 163.413 12.5902C162.864 12.1283 162.634 11.5504 162.589 10.5264C162.554 9.7343 162.582 9.55019 162.811 9.06997Z" fill="white"/>
<path d="M6.31232 14.1536C12.6347 14.154 14.9609 14.2423 16.3712 14.5354C19.494 15.184 21.4601 16.6346 22.6611 19.1759C23.6058 21.1748 23.7107 24.141 22.922 26.5593C22.0503 29.2324 19.9488 31.2578 17.001 32.2664C15.4733 32.7891 14.3654 32.9429 11.7007 33.0028C10.8544 33.0218 10.0079 33.041 9.1616 33.0598C9.17227 34.6643 9.18336 36.2688 9.19403 37.8733C9.22603 42.5909 9.23136 42.6952 9.46027 43.1234C9.98507 44.1041 10.7746 44.4838 12.56 44.6148C13.4272 44.6786 13.5467 44.7114 13.5467 44.8868C13.5467 45.0797 13.3199 45.0865 6.77333 45.0865C0.07104 45.0865 0 45.0843 0 44.8731C0 44.7558 0.0119467 44.6577 0.0266667 44.6551C0.0413867 44.6526 0.551041 44.6093 1.15925 44.5589C2.70229 44.4311 3.33099 44.1118 3.78432 43.2249C3.89184 43.015 3.99915 42.8049 4.10667 42.595C4.10667 38.2901 4.10667 33.9855 4.10667 29.6806C4.10667 17.4944 4.09579 16.7353 3.9136 16.2131C3.69067 15.5744 3.11595 14.9941 2.50624 14.7931C2.28544 14.7202 1.64352 14.6302 1.08011 14.5935C0.221014 14.5374 0.0499187 14.4964 0.0200521 14.3398C-0.0136546 14.1636 0.343041 14.1531 6.31232 14.1536ZM17.8635 20.3398C17.504 17.7598 16.5779 16.1028 15.0707 15.3418C13.9708 14.7868 13.3525 14.6707 11.1733 14.6099C10.5067 14.5913 9.84 14.5726 9.17333 14.5542C9.17333 17.5673 9.17333 20.5809 9.17333 23.594C9.17333 26.6073 9.17333 29.6205 9.17333 32.6338C9.76896 32.6146 10.3644 32.5952 10.96 32.5758C13.7267 32.4857 14.9423 32.0742 16.102 30.8343C17.1089 29.7583 17.6768 28.2937 17.917 26.1531C18.0651 24.8362 18.0348 21.5697 17.8635 20.3398Z" fill="white"/>
<path d="M32.48 46.1532C38.1158 46.1532 39.04 46.1747 39.04 46.3068C39.04 46.4103 38.8751 46.4798 38.5333 46.5203C36.8307 46.7224 36.1391 46.9818 35.6738 47.5921C35.0752 48.3768 35.1031 47.6444 35.098 62.7132C35.0963 67.3622 35.0948 72.0109 35.0933 76.6599C36.0266 76.659 36.96 76.6582 37.8933 76.6573C41.6691 76.6539 44.2101 76.5099 45.2614 76.2394C47.361 75.699 48.4996 74.4937 49.063 72.2144C49.2958 71.2728 49.4933 69.5362 49.4933 68.432C49.4933 67.8597 49.5309 67.6788 49.6606 67.629C49.7523 67.5938 49.8681 67.6073 49.9174 67.6589C49.9667 67.711 49.9543 69.8223 49.8901 72.3514C49.8513 73.8844 49.8123 75.417 49.7732 76.95C48.5369 76.9677 47.3007 76.9856 46.0646 77.0033C39.6838 77.0953 25.92 76.9696 25.92 76.8197C25.92 76.7345 26.2914 76.6477 27.0005 76.5671C28.0665 76.4459 28.8616 76.1867 29.2646 75.8291C29.3777 75.7287 29.5829 75.4065 29.7207 75.1132C29.8041 74.9355 29.8878 74.7576 29.9712 74.5799C29.9703 70.2599 29.9697 65.9399 29.9691 61.6199C29.9682 57.2999 29.9676 52.9799 29.9667 48.6599C29.8878 48.4659 29.8088 48.272 29.7301 48.0781C29.3005 47.0223 28.3693 46.5799 26.5779 46.5799C25.9912 46.5799 25.92 46.5568 25.92 46.3665C25.92 46.1555 25.9912 46.1532 32.48 46.1532Z" fill="white"/>
<path d="M25.9467 44.6122C26.0201 44.5894 26.464 44.544 26.9334 44.5111C28.9043 44.3723 29.6246 43.7903 29.8624 42.145C30.0124 41.1082 30.0083 25.9398 29.8579 24.8587C29.6243 23.1789 28.9974 22.5741 27.2412 22.3347C26.5007 22.2336 26.3467 22.1798 26.3467 22.0228C26.3467 21.8442 26.5905 21.8332 30.5046 21.8332C31.8904 21.8332 33.2764 21.8332 34.6622 21.8332C34.6718 22.5355 34.6816 23.2375 34.6912 23.9398C34.7006 24.6421 34.7104 25.3442 34.72 26.0465C34.7862 25.8509 34.8525 25.6555 34.9188 25.4598C35.4656 23.8455 36.4452 22.6571 37.7615 22.0115C38.7322 21.5353 39.3769 21.4065 40.7921 21.4065C42.3369 21.4065 43.197 21.642 44.1666 22.3298C45.4483 23.2395 45.7319 25.3852 44.742 26.6833C44.2569 27.3192 42.4384 28.0198 41.273 28.0198C40.9605 28.0198 40.96 28.019 40.9581 27.3532C40.9564 26.663 40.736 25.4315 40.515 24.8732C40.2712 24.2573 39.7758 23.6491 39.283 23.3604C38.5929 22.9559 37.5693 22.9547 36.8815 23.3576C35.7039 24.0478 35.0422 25.9272 34.7744 29.3419C34.64 31.0575 34.633 41.2998 34.7657 42.1101C35.0558 43.8814 35.7161 44.3456 38.3262 44.6133C38.8288 44.6647 38.9391 44.7104 38.9114 44.8548C38.8798 45.0189 38.3501 45.0353 32.3452 45.0607C25.8338 45.0882 25.8134 45.0876 25.8134 44.8706C25.8134 44.7511 25.8733 44.6346 25.9467 44.6122Z" fill="white"/>
<path d="M48.8559 37.8864C49.7775 23.1995 53.5627 13.6035 60.9325 7.26988C62.2038 6.17718 64.2428 4.77068 65.76 3.93975C72.7027 0.137721 82.1592 -0.983343 91.5126 0.886311C96.9342 1.97026 101.839 4.48589 105.46 8.03895C112.272 14.7244 115.085 23.3249 115.092 37.4864C115.092 38.1354 115.093 38.7841 115.093 39.4331C106.857 39.4331 98.6195 39.4331 90.3827 39.4331C82.1459 39.4331 73.9091 39.4331 65.6723 39.4331C65.6954 40.7754 65.7182 42.1175 65.7412 43.4598C65.9181 53.7872 66.8657 61.3102 68.7806 67.5931C70.3437 72.721 72.9186 76.5522 76.326 78.8204C78.1357 80.0249 79.7457 80.6811 82.1867 81.2089C83.91 81.5818 87.6642 81.684 89.6534 81.4122C98.8036 80.1618 104.744 74.7007 107.083 65.3866C107.257 64.6935 107.474 63.6998 107.564 63.1779C107.654 62.6566 107.75 62.2075 107.777 62.1806C107.857 62.1004 108.924 62.4812 109.414 62.7651C110.005 63.1065 110.829 64.0366 111.184 64.7626C112.157 66.7498 111.903 69.4354 110.492 72.078C110.032 72.9377 108.695 74.6352 107.628 75.7125C103.803 79.5741 98.6381 81.8205 91.3067 82.8116C89.247 83.0902 81.8564 83.0918 79.5734 82.814C73.3148 82.0532 68.2065 80.2591 63.84 77.2889C55.2365 71.4365 50.2204 61.6108 49.007 48.2331C48.8118 46.081 48.723 40.004 48.8559 37.8864ZM97.8481 32.4464C97.7355 26.9183 97.0579 20.1192 96.2006 15.9131C94.72 8.64929 92.3315 4.66679 88.2667 2.68237C86.3588 1.75117 84.4595 1.38678 82.0702 1.49324C77.6546 1.69014 74.5182 3.27478 72.0657 6.54774C71.2811 7.59521 69.776 10.4761 69.2448 11.9474C67.7976 15.9572 66.7625 21.604 66.1912 28.6064C65.9861 31.1182 65.7225 35.5195 65.696 36.8731C65.6894 37.2108 65.6828 37.5487 65.6762 37.8864C71.0503 37.8954 76.4241 37.9045 81.798 37.9133C87.1721 37.9223 92.5459 37.9314 97.92 37.9404C97.9123 37.2381 97.9047 36.5356 97.8972 35.8333C97.8844 34.6745 97.8624 33.1504 97.8481 32.4464Z" fill="white"/>
<path d="M118.16 39.873C119.63 39.8318 120.483 39.3829 120.975 38.3918C121.059 38.2235 121.143 38.0547 121.227 37.8864C121.227 34.8812 121.227 31.8759 121.227 28.8705C121.227 25.8651 121.227 22.8601 121.227 19.8546C121.102 19.6067 120.978 19.3584 120.853 19.1105C120.516 18.4381 120.422 18.337 119.876 18.0609C119.434 17.8373 119.048 17.7373 118.436 17.6876C117.674 17.6257 117.597 17.5984 117.566 17.3797C117.555 17.2997 117.543 17.2197 117.532 17.1397C118.939 17.1397 120.346 17.1397 121.752 17.1397C123.159 17.1397 124.566 17.1397 125.973 17.1397C125.976 17.8597 125.978 18.5797 125.981 19.2997C125.984 20.0197 125.986 20.7397 125.989 21.4597C126.052 21.282 126.116 21.1041 126.179 20.9264C126.787 19.2219 127.764 18.0035 129.001 17.4087C131.168 16.3666 134.706 16.5388 136.641 17.7806C137.753 18.4942 138.836 19.9551 139.249 21.2997C139.349 21.6225 139.455 21.9583 139.486 22.0464C139.518 22.1345 139.636 21.8224 139.749 21.3531C140.192 19.5156 141.242 18.0321 142.529 17.4248C143.595 16.9217 144.352 16.7743 145.867 16.7737C148.224 16.7728 149.728 17.3213 151.104 18.6832C151.989 19.5594 152.489 20.5006 152.851 21.97C153.175 23.2835 153.273 25.6238 153.277 32.1337C153.28 38.3438 153.284 38.3766 154.06 39.1519C154.547 39.6379 155.015 39.8216 156.04 39.9284C156.468 39.9734 156.693 40.0443 156.693 40.1347C156.693 40.3325 156.424 40.3429 152.245 40.3103C150.994 40.3007 149.742 40.2909 148.491 40.2813C148.478 37.2332 148.465 34.1851 148.451 31.137C148.408 21.1472 148.414 21.2387 147.771 19.7947C147.051 18.1797 145.278 17.3605 143.492 17.8184C141.349 18.3673 140.271 19.816 139.83 22.7397C139.621 24.1243 139.615 36.9949 139.823 37.803C140.161 39.1148 141.009 39.7883 142.496 39.9267C143.028 39.976 143.253 40.0402 143.253 40.1418C143.253 40.261 142.525 40.2864 139.097 40.2864C137.712 40.2864 136.326 40.2864 134.941 40.2864C134.93 37.202 134.92 34.1174 134.91 31.0331C134.899 27.9487 134.888 24.8641 134.878 21.7797C134.778 21.4604 134.679 21.1408 134.579 20.8214C134.242 19.7407 134.004 19.2948 133.45 18.7039C132.967 18.1887 132.489 17.9408 131.667 17.7791C130.903 17.6289 129.805 17.7603 129.023 18.0957C127.661 18.6792 126.561 20.4462 126.197 22.6331C126.045 23.5425 125.931 35.4836 126.06 36.8823C126.13 37.6396 126.237 38.1524 126.383 38.4392C126.829 39.314 127.645 39.7676 129.04 39.9163C129.507 39.966 129.707 40.0321 129.707 40.1369C129.707 40.2627 128.993 40.2864 125.19 40.2864C122.706 40.2864 119.946 40.318 119.057 40.3564C118.518 40.3798 117.979 40.4031 117.44 40.4264C117.44 40.3376 117.44 40.2486 117.44 40.1599C117.44 39.9039 117.469 39.8926 118.16 39.873Z" fill="white"/>
<path d="M201.622 39.9225C203.422 39.7552 204.18 39.2735 204.514 38.0857C204.675 37.5101 204.693 36.5787 204.693 28.7973C204.693 20.4929 204.685 20.1219 204.483 19.4683C204.124 18.3058 203.386 17.8015 201.895 17.6995C201.112 17.6458 201.067 17.6289 201.067 17.391C201.067 17.3072 201.067 17.2236 201.067 17.1397C202.453 17.1397 203.84 17.1397 205.227 17.1397C206.613 17.1397 208 17.1397 209.387 17.1397C209.387 17.8508 209.387 18.562 209.387 19.2731C209.387 20.4464 209.428 21.4064 209.479 21.4064C209.53 21.4064 209.649 21.1304 209.744 20.7931C210.131 19.4164 211.239 18.0336 212.415 17.4606C213.541 16.9121 214.282 16.769 216 16.7679C217.388 16.7671 217.639 16.7965 218.453 17.0557C218.952 17.2146 219.648 17.5146 220 17.7224C221.375 18.5345 222.492 20.1445 222.873 21.864C222.95 22.2105 223.147 22.1514 223.147 21.7819C223.147 21.3539 223.792 19.6761 224.183 19.0864C225.29 17.4164 227.163 16.628 229.76 16.7385C232.848 16.8699 235.11 18.3621 236.049 20.8871C236.59 22.3419 236.607 22.587 236.687 30.3664C236.734 35.0158 236.803 37.7917 236.874 37.9993C237.079 38.5919 237.318 38.9706 237.698 39.3049C238.12 39.6748 238.57 39.8262 239.547 39.9271C240.004 39.9743 240.213 40.0413 240.213 40.1411C240.213 40.261 239.505 40.2864 236.133 40.2864C233.889 40.2864 232.041 40.2986 232.026 40.3131C232.012 40.3276 231.973 36.3077 231.941 31.3797C231.877 21.5325 231.852 21.1141 231.244 19.8064C230.733 18.7099 230.046 18.1068 228.984 17.8239C227.496 17.4279 225.948 17.8506 224.941 18.9277C224.15 19.7727 223.697 20.8155 223.398 22.4731C223.135 23.9348 223.047 36.4095 223.292 37.5826C223.621 39.1591 224.247 39.6682 226.16 39.9143C226.499 39.9581 226.667 40.03 226.667 40.1328C226.667 40.2638 226.065 40.2864 222.587 40.2864C220.343 40.2864 218.49 40.2986 218.469 40.3131C218.448 40.3276 218.401 36.1396 218.362 31.0064C218.339 27.8954 218.316 24.7841 218.293 21.6731C218.208 21.3755 218.123 21.0774 218.038 20.7798C217.697 19.588 217.097 18.6932 216.332 18.2376C215.321 17.6349 214.071 17.5321 212.839 17.95C211.258 18.4867 210.181 20.0283 209.733 22.3952C209.568 23.2701 209.547 24.1695 209.547 30.4731C209.547 37.1048 209.56 37.6033 209.744 38.1339C210.105 39.1675 210.981 39.7422 212.453 39.9109C212.918 39.9643 213.12 40.0328 213.12 40.1369C213.12 40.2815 211.218 40.3156 201.948 40.3374C201.075 40.3393 200.904 40.3122 200.876 40.1674C200.849 40.0264 200.985 39.9818 201.622 39.9225Z" fill="white"/>
<path d="M177.162 17.1398C178.549 17.1398 179.937 17.1398 181.324 17.1398C181.337 20.2775 181.349 23.4154 181.361 26.5531C181.402 36.8403 181.388 36.6043 182.036 38.0479C182.326 38.6952 182.957 39.3808 183.537 39.6808C184.073 39.9583 185.021 40.0789 185.799 39.9686C186.767 39.8312 187.352 39.6095 187.951 39.153C188.955 38.3873 189.584 37.2993 190.02 35.5745C190.471 33.7909 190.525 32.6766 190.486 26.0464C190.454 20.4516 190.432 19.8145 190.263 19.387C189.827 18.286 189.102 17.7962 187.747 17.6859C187.008 17.6257 186.93 17.5978 186.899 17.3798C186.888 17.2998 186.877 17.2198 186.865 17.1398C188.272 17.1398 189.679 17.1398 191.086 17.1398C192.493 17.1398 193.9 17.1398 195.307 17.1398C195.307 20.4981 195.307 23.8564 195.307 27.2147C195.307 33.9191 195.345 37.466 195.42 37.8173C195.694 39.0952 196.54 39.7687 198.059 39.9184C198.639 39.9756 198.829 40.0328 198.805 40.1429C198.779 40.2651 198.078 40.295 194.748 40.3152C193.407 40.3233 192.065 40.3317 190.723 40.3398C190.714 39.4331 190.705 38.5264 190.695 37.6198C190.679 36.1237 190.638 34.9717 190.602 35.0598C190.567 35.1479 190.459 35.5558 190.362 35.9664C189.943 37.7422 188.842 39.3179 187.541 40.0014C186.393 40.6045 185.623 40.7408 183.68 40.6843C181.799 40.6297 181.175 40.4947 179.893 39.8651C178.146 39.0071 177.132 37.4506 176.678 34.9271C176.552 34.2286 176.508 32.5913 176.466 27.0064C176.408 19.3023 176.399 19.1869 175.783 18.4846C175.378 18.0247 174.761 17.7749 173.813 17.6882C173.145 17.627 173.063 17.5948 173.032 17.3798C173.021 17.2998 173.01 17.2198 172.999 17.1398C174.386 17.1398 175.774 17.1398 177.162 17.1398Z" fill="white"/>
<path d="M159.621 39.8926C161.455 39.6972 162.297 39.0391 162.564 37.591C162.641 37.1765 162.666 34.1815 162.64 28.4176C162.597 18.8417 162.64 19.3623 161.814 18.5104C161.282 17.9615 160.893 17.8096 159.76 17.7072C159.093 17.6471 159.04 17.6236 159.04 17.3911C159.04 17.3072 159.04 17.2236 159.04 17.1398C160.426 17.1398 161.812 17.1398 163.197 17.1398C164.583 17.1398 165.969 17.1398 167.355 17.1398C167.364 20.5798 167.374 24.0198 167.384 27.4598C167.394 30.8998 167.404 34.3398 167.413 37.7798C167.514 37.9846 167.614 38.1892 167.715 38.394C168.213 39.4088 168.951 39.8047 170.587 39.9332C171.178 39.9797 171.413 40.0392 171.413 40.1422C171.413 40.2615 170.526 40.2864 166.31 40.2864C163.503 40.2864 160.623 40.318 159.91 40.3562C158.662 40.4232 158.613 40.4179 158.613 40.2128C158.613 40.0225 158.721 39.9884 159.621 39.8926Z" fill="white"/>
<path d="M122.182 76.5327C123.429 76.467 124.179 76.09 124.661 75.2853C124.868 74.9393 125.027 74.5022 125.066 74.1683C125.103 73.8667 125.117 69.7319 125.099 64.9799C125.069 56.8226 125.056 56.3145 124.868 55.8848C124.479 54.9946 123.466 54.3665 122.419 54.3665C121.751 54.3665 121.387 54.2488 121.387 54.0333C121.387 53.8411 121.553 53.8332 125.661 53.8332C127.086 53.8332 128.511 53.8332 129.935 53.8332C129.93 54.4999 129.925 55.1665 129.919 55.8332C129.911 56.9331 129.91 57.8812 129.918 57.9399C129.925 57.9985 130.063 57.6849 130.222 57.2431C130.61 56.1698 130.987 55.5492 131.647 54.9005C132.296 54.2609 133.256 53.7767 134.321 53.5509C135.459 53.3099 138.146 53.4005 139.093 53.7122C140.004 54.0117 141 54.5378 141.586 55.0298C142.561 55.8475 143.363 57.4242 143.691 59.1665C143.781 59.6467 143.84 62.1225 143.884 67.2199C143.905 69.6732 143.926 72.1265 143.947 74.5799C144.041 74.7817 144.136 74.9837 144.231 75.1853C144.645 76.0685 145.303 76.4484 146.693 76.6057C147.121 76.6541 147.307 76.7213 147.307 76.8275C147.307 76.957 146.688 76.9799 143.206 76.9799C141.839 76.9799 140.472 76.9799 139.105 76.9799C139.092 73.9132 139.078 70.8465 139.065 67.7799C139.02 57.664 139.028 57.7901 138.352 56.3266C137.94 55.4336 137.412 54.8832 136.615 54.515C136.011 54.2362 135.839 54.2065 134.827 54.2082C133.779 54.2097 133.66 54.233 132.986 54.5606C131.214 55.4229 130.353 57.0581 130.027 60.1799C129.945 60.9709 129.916 63.4897 129.939 67.9132C129.951 70.0999 129.962 72.2865 129.973 74.4732C130.058 74.6601 130.142 74.8472 130.227 75.034C130.366 75.3423 130.642 75.7363 130.839 75.9093C131.201 76.2276 132.077 76.5521 132.579 76.5543C133.142 76.5568 133.653 76.6897 133.653 76.8339C133.653 76.9549 132.964 76.9798 129.627 76.9801C127.412 76.9803 124.628 77.0119 123.44 77.0505C122.72 77.0737 122 77.097 121.28 77.1204C121.28 77.0304 121.28 76.9402 121.28 76.8502C121.28 76.586 121.3 76.5788 122.182 76.5327Z" fill="white"/>
<path d="M170.77 63.4332C171.13 59.7847 172.358 56.9406 174.227 55.4246C175.011 54.7889 176.503 54.0341 177.6 53.7182C178.734 53.3913 181.471 53.3071 182.721 53.5603C184.647 53.9505 186.125 54.774 187.476 56.2103C189.112 57.9494 189.855 60.2376 189.864 63.5665C189.864 63.9842 189.866 64.4021 189.867 64.8198C187.497 64.8198 185.128 64.8198 182.758 64.8198C180.389 64.8198 178.02 64.8198 175.65 64.8198C175.671 65.5932 175.691 66.3665 175.711 67.1398C175.866 73.1117 177.091 75.9063 179.931 76.7688C181.492 77.2431 183.834 76.9015 185.133 76.0102C185.709 75.6147 186.475 74.7552 186.867 74.0653C187.22 73.4413 187.627 72.2029 187.627 71.7483C187.627 71.35 187.724 71.3069 188.151 71.514C188.992 71.9213 189.123 72.9709 188.491 74.2539C187.837 75.5821 186.36 76.5777 184.254 77.1102C182.96 77.437 179.614 77.4626 178.305 77.1558C175.945 76.6027 174.099 75.3815 172.815 73.5249C171.385 71.4558 170.806 69.389 170.723 66.0465C170.7 65.1078 170.721 63.9317 170.77 63.4332ZM184.785 60.8198C184.498 58.2989 184.175 56.8075 183.714 55.8628C183.277 54.9685 182.46 54.2076 181.699 53.9865C180.809 53.7276 179.501 53.8197 178.732 54.196C178.081 54.5145 177.304 55.2917 176.957 55.9729C176.25 57.3574 175.801 59.6926 175.711 62.4465C175.69 63.0955 175.669 63.7442 175.647 64.3932C177.182 64.3932 178.716 64.3932 180.25 64.3932C181.785 64.3932 183.319 64.3932 184.853 64.3932C184.848 63.8509 184.843 63.3088 184.837 62.7665C184.829 61.872 184.805 60.9958 184.785 60.8198Z" fill="white"/>
<path d="M193.849 71.8598C194.02 71.114 194.132 70.915 194.647 70.4505C195.043 70.0921 195.689 69.8188 196.453 69.6855C196.569 69.6655 196.684 69.6454 196.8 69.6251C196.8 69.8287 196.801 70.0322 196.801 70.2359C196.804 72.7675 197.52 75.082 198.59 76.0239C200.162 77.4075 203.544 77.2486 205.156 75.7154C205.932 74.9768 206.317 73.873 206.315 72.3931C206.312 69.9923 205.433 69.0707 201.44 67.2774C197.195 65.3715 195.969 64.5734 195.009 63.0897C194.331 62.0414 194.108 61.2471 194.102 59.8598C194.095 57.9439 194.504 56.8162 195.655 55.5816C196.939 54.2052 199.297 53.4146 202.136 53.4086C204.81 53.4031 206.697 53.953 207.921 55.0948C208.938 56.0431 209.291 56.9674 209.06 58.0789C208.827 59.1993 207.948 59.8146 206.227 60.0616C206.08 60.0825 205.934 60.1037 205.787 60.1246C205.763 59.7604 205.738 59.3962 205.713 59.0321C205.568 56.9028 205.096 55.4888 204.296 54.7863C203.148 53.7781 201.211 53.5562 199.627 54.2515C198.998 54.5275 198.231 55.3604 197.959 56.0623C197.609 56.9661 197.614 58.6489 197.968 59.5931C198.451 60.8791 199.272 61.4784 202.347 62.7919C205.929 64.3221 207.41 65.1754 208.485 66.3296C209.58 67.504 209.957 68.5327 209.966 70.3665C209.974 71.8184 209.835 72.4601 209.262 73.6403C208.387 75.4408 206.681 76.6361 204.234 77.1643C202.883 77.456 199.321 77.427 198.07 77.1142C195.878 76.5662 194.481 75.5387 193.975 74.1032C193.75 73.4671 193.697 72.5199 193.849 71.8598Z" fill="white"/>
<path d="M150.364 71.4423C150.714 70.4872 151.734 69.7892 152.906 69.7041C153.325 69.6738 153.331 69.6789 153.299 70.0072C153.281 70.1909 153.32 70.9271 153.386 71.6435C153.736 75.4412 155.31 77.1302 158.337 76.9548C161.216 76.788 162.782 75.1899 162.806 72.3931C162.819 70.999 162.58 70.3699 161.713 69.5131C160.939 68.7488 159.952 68.193 157.067 66.8966C153.961 65.5012 152.403 64.442 151.536 63.1368C150.809 62.042 150.583 61.2682 150.58 59.8598C150.576 57.9166 151.017 56.7144 152.147 55.5882C153.569 54.1706 155.809 53.4088 158.563 53.4071C162.817 53.4043 165.56 54.9583 165.578 57.3817C165.59 58.9145 164.621 59.824 162.704 60.0783C162.525 60.1019 162.346 60.1256 162.167 60.1495C162.144 59.6923 162.122 59.2352 162.1 58.778C162.001 56.7524 161.683 55.7589 160.841 54.8454C160.248 54.2024 159.603 53.9251 158.548 53.8589C157.041 53.7647 155.904 54.1753 155.055 55.1193C154.396 55.8515 154.19 56.5324 154.198 57.9398C154.207 59.3427 154.469 60.0663 155.24 60.8207C155.887 61.453 156.594 61.8331 159.307 63.0084C160.421 63.4909 161.669 64.0537 162.08 64.2587C165.244 65.8372 166.639 67.9543 166.469 70.9199C166.3 73.8604 164.69 75.8914 161.76 76.8595C159.106 77.7363 154.921 77.5441 152.745 76.4454C151.853 75.9953 150.904 75.0814 150.541 74.3236C150.178 73.5652 150.093 72.1817 150.364 71.4423Z" fill="white"/>
<path d="M211.336 88.9489C213.05 89.0069 213.535 89.1537 213.879 89.7179C214.302 90.4117 214.069 91.1127 213.252 91.604C213.033 91.7356 212.837 91.8557 212.816 91.8709C212.796 91.8858 213.128 92.4117 213.556 93.0391C214.089 93.8229 214.434 94.2244 214.659 94.3223C214.975 94.4597 214.961 94.465 214.266 94.4691C214.026 94.4704 213.786 94.4719 213.545 94.4731C213.283 94.0695 213.021 93.6659 212.759 93.2622C212.014 92.1149 211.585 91.7152 211.462 92.0548C211.437 92.1235 211.452 92.6594 211.495 93.2456C211.521 93.601 211.547 93.9562 211.573 94.3114C211.68 94.3343 211.787 94.3571 211.893 94.3797C212.069 94.4172 211.661 94.4454 210.987 94.4426C210.312 94.4396 209.941 94.4185 210.162 94.3953C210.296 94.3814 210.43 94.3673 210.564 94.3532C210.554 93.4933 210.545 92.6333 210.535 91.7734C210.526 90.9132 210.516 90.0533 210.507 89.1931C210.391 89.182 210.276 89.1707 210.16 89.1596C209.969 89.1415 209.813 89.0747 209.813 89.0116C209.813 88.9329 210.29 88.9132 211.336 88.9489ZM213.064 89.9398C212.979 89.7051 212.909 89.4988 212.908 89.4811C212.903 89.3817 212.111 89.1398 211.79 89.1398C211.665 89.1398 211.539 89.1398 211.413 89.1398C211.413 89.4193 211.413 89.6987 211.413 89.9782C211.413 90.4392 211.444 91.0393 211.481 91.3115C211.546 91.7866 211.563 91.8065 211.901 91.8065C212.497 91.8065 212.794 91.629 213.016 91.1407C213.26 90.6016 213.265 90.4979 213.064 89.9398Z" fill="white"/>
<path d="M196.44 94.3881C196.565 94.3761 196.714 94.3066 196.772 94.2332C196.854 94.128 198.505 89.6399 198.678 89.0524C198.7 88.9749 198.827 88.9269 198.959 88.9457C199.167 88.9754 199.331 89.318 200.167 91.4701C200.699 92.8399 201.19 94.0482 201.257 94.1555C201.324 94.2628 201.488 94.3716 201.622 94.3972C201.757 94.423 201.339 94.4431 200.693 94.4416C200.048 94.4403 199.676 94.4198 199.867 94.3962C200.285 94.3441 200.293 94.2445 199.959 93.2998C199.878 93.0688 199.796 92.8376 199.714 92.6065C199.365 92.6065 199.016 92.6065 198.667 92.6065C198.317 92.6065 197.968 92.6065 197.619 92.6065C197.537 92.8376 197.455 93.0688 197.374 93.2998C197.032 94.268 197.042 94.345 197.52 94.3981C197.74 94.4224 197.536 94.435 197.067 94.4258C196.597 94.4169 196.315 94.3998 196.44 94.3881ZM199.121 91.0332C198.885 90.4026 198.662 89.8867 198.626 89.8872C198.566 89.8876 197.76 92.109 197.76 92.2722C197.76 92.3093 198.168 92.3398 198.667 92.3398C199.165 92.3398 199.568 92.3038 199.562 92.2598C199.555 92.2159 199.357 91.6638 199.121 91.0332Z" fill="white"/>
<path d="M222.28 88.9265C223.022 88.9265 223.764 88.9265 224.507 88.9265C224.529 89.0377 224.551 89.1488 224.573 89.2597C224.673 89.7574 224.654 90.2065 224.533 90.2065C224.475 90.2065 224.425 90.0986 224.424 89.9665C224.42 89.5008 224.106 89.2649 223.387 89.1857C223.164 89.1612 222.942 89.1369 222.72 89.1123C222.72 89.8769 222.72 90.6415 222.72 91.4061C222.72 94.2782 222.731 94.3422 223.239 94.3962C223.452 94.4188 223.051 94.439 222.347 94.4412C221.643 94.4433 221.234 94.4154 221.44 94.3791C221.564 94.3571 221.689 94.3352 221.813 94.3132C221.823 93.4509 221.832 92.5888 221.842 91.7265C221.851 90.8642 221.861 90.0021 221.87 89.1398C221.73 89.1398 221.589 89.1398 221.449 89.1398C220.78 89.1398 220.494 89.3013 220.27 89.8054C220.203 89.9569 220.136 90.1084 220.068 90.2598C220.066 90.0376 220.063 89.8155 220.061 89.5932C220.058 89.3709 220.056 89.1488 220.053 88.9265C220.795 88.9265 221.538 88.9265 222.28 88.9265Z" fill="white"/>
<path d="M229.973 88.9265C231.947 88.9265 232.427 88.9683 232.427 89.0332C232.427 89.0918 232.246 89.1398 232.027 89.1398C231.893 89.1398 231.76 89.1396 231.627 89.1396C231.617 89.7707 231.608 90.4019 231.598 91.0332C231.556 93.8287 231.75 94.3686 232.792 94.3642C233.09 94.3627 233.489 94.2906 233.68 94.2042C233.795 94.1515 233.911 94.099 234.027 94.0465C234.062 94.0465 234.098 94.0465 234.133 94.0465C233.509 94.4796 233.296 94.5265 232.694 94.5265C231.861 94.5265 231.39 94.3245 230.998 93.7991C230.792 93.5228 230.769 93.3205 230.72 91.3457C230.702 90.6281 230.684 89.9106 230.667 89.1932C230.551 89.1755 230.435 89.1576 230.319 89.1398C230.128 89.1104 229.972 89.0505 229.973 89.0065C229.973 88.9798 229.973 88.9532 229.973 88.9265Z" fill="white"/>
<path d="M203.067 88.9265C205.041 88.9265 205.521 88.9683 205.521 89.0332C205.521 89.0918 205.341 89.1398 205.121 89.1398C204.987 89.1398 204.854 89.1396 204.721 89.1396C204.711 89.7707 204.702 90.4019 204.692 91.0332C204.65 93.8287 204.844 94.3686 205.886 94.3642C206.184 94.3627 206.583 94.2906 206.774 94.2042C206.89 94.1515 207.005 94.099 207.121 94.0465C207.156 94.0465 207.192 94.0465 207.227 94.0465C206.604 94.4796 206.39 94.5265 205.788 94.5265C204.955 94.5265 204.484 94.3245 204.092 93.7991C203.886 93.5228 203.863 93.3205 203.814 91.3457C203.796 90.6281 203.778 89.9106 203.761 89.1932C203.645 89.1755 203.529 89.1576 203.413 89.1398C203.222 89.1104 203.066 89.0505 203.067 89.0065C203.067 88.9798 203.067 88.9532 203.067 88.9265Z" fill="white"/>
<path d="M227.307 88.9265C228.034 88.9265 228.587 88.9698 228.587 89.0268C228.587 89.082 228.407 89.142 228.187 89.1601C228.053 89.1712 227.92 89.1821 227.787 89.1932C227.776 89.9042 227.765 90.6155 227.755 91.3265C227.737 92.4998 227.752 93.6612 227.787 93.9072C227.85 94.343 227.863 94.3558 228.299 94.3953C228.545 94.4177 228.147 94.4371 227.413 94.4384C226.68 94.4401 226.224 94.4201 226.4 94.3942C226.575 94.3684 226.754 94.2916 226.798 94.2236C226.894 94.0719 226.906 90.3202 226.812 89.6348C226.747 89.1576 226.731 89.1398 226.385 89.1398C226.188 89.1398 226.027 89.0918 226.027 89.0332C226.027 88.9679 226.524 88.9265 227.307 88.9265Z" fill="white"/>
<path d="M217.28 88.9265C218.062 88.9265 218.56 88.9679 218.56 89.0332C218.56 89.0918 218.392 89.1398 218.187 89.1398C218.062 89.1398 217.938 89.1398 217.813 89.1398C217.813 90.0088 217.813 90.8779 217.813 91.7468C217.813 92.6157 217.813 93.4846 217.813 94.3535C217.947 94.3676 218.08 94.3814 218.213 94.3953C218.433 94.4186 218.013 94.4371 217.28 94.4365C216.546 94.4363 216.151 94.4175 216.4 94.3951C216.551 94.3814 216.702 94.3678 216.853 94.3541C216.853 93.4852 216.853 92.6161 216.853 91.747C216.853 90.8781 216.853 90.0088 216.853 89.1398C216.711 89.1398 216.569 89.1398 216.427 89.1398C216.192 89.1398 216 89.0918 216 89.0332C216 88.9679 216.498 88.9265 217.28 88.9265Z" fill="white"/>
<path d="M191.893 93.0865C191.501 94.1129 191.334 94.4284 191.269 94.4501C191.137 94.4939 191.123 94.464 190.127 92.0732C189.736 91.1345 189.35 90.2586 189.268 90.1265C189.219 90.0465 189.169 89.9665 189.12 89.8865C189.049 89.8865 188.978 89.8865 188.907 89.8865C188.907 89.1576 188.889 89.1398 188.533 89.1398C188.328 89.1398 188.16 89.0918 188.16 89.0332C188.16 88.9107 189.54 88.8883 189.714 89.0082C189.777 89.0513 189.953 89.3984 190.106 89.7798C190.522 90.8154 191.592 93.1439 191.639 93.1132C191.653 93.1042 191.666 93.0955 191.68 93.0865C191.751 93.0865 191.822 93.0865 191.893 93.0865Z" fill="white"/>
<path d="M237.04 93.0016C237.347 92.7471 237.453 92.8309 237.684 93.5121C237.956 94.311 238.215 94.5101 238.879 94.4307C239.427 94.3655 239.68 94.0597 239.68 93.4624C239.68 92.8476 239.445 92.5822 238.402 92.0209C237.924 91.7634 237.435 91.4157 237.316 91.2482C236.594 90.2357 237.361 88.9265 238.676 88.9265C238.986 88.9265 239.361 88.9726 239.509 89.0289C240.147 89.2717 240.443 89.9693 240.007 90.2027C239.698 90.3684 239.573 90.3373 239.573 90.0945C239.573 89.7796 239.287 89.2721 239.033 89.1358C238.912 89.0716 238.678 89.0488 238.511 89.0854C238.071 89.1821 237.818 89.5143 237.818 89.9957C237.818 90.5201 238.128 90.8651 238.987 91.2956C239.974 91.7911 240.298 92.0762 240.43 92.5664C240.592 93.1682 240.386 93.7715 239.878 94.1792C239.153 94.7622 237.523 94.666 237.066 94.0139C236.872 93.7365 236.857 93.1539 237.04 93.0016Z" fill="white"/>
<path d="M192.96 89.8865C193.054 89.5842 193.149 89.2821 193.244 88.9798C193.486 88.9691 193.729 88.9585 193.971 88.948C194.382 88.9299 194.748 88.9647 194.811 89.028C194.889 89.1059 194.787 89.1398 194.475 89.1398C194.325 89.1398 194.176 89.1398 194.027 89.1398C194.027 90.0087 194.027 90.8778 194.027 91.7467C194.027 92.6156 194.027 93.4846 194.027 94.3535C194.16 94.3676 194.293 94.3814 194.427 94.3953C194.646 94.4185 194.299 94.4377 193.653 94.4382C193.008 94.4386 192.638 94.4196 192.83 94.3957C192.947 94.3812 193.064 94.3667 193.181 94.3524C193.171 93.6258 193.16 92.8992 193.15 92.1726C193.134 90.9738 193.084 89.9931 193.04 89.9931C193.013 89.9931 192.987 89.9931 192.96 89.9931C192.96 89.9575 192.96 89.9221 192.96 89.8865Z" fill="white"/>
<path d="M234.027 94.0465C234.371 93.5059 234.408 93.1089 234.453 91.2198C234.471 90.4731 234.489 89.7265 234.507 88.9798C234.622 88.9687 234.738 88.9574 234.853 88.9463C235.048 88.9276 235.2 88.9628 235.2 89.0263C235.2 89.0888 235.087 89.1398 234.949 89.1398C234.865 89.1398 234.781 89.1398 234.698 89.1398C234.679 89.8494 234.661 90.5591 234.642 91.2687C234.592 93.2158 234.567 93.425 234.36 93.722C234.284 93.8302 234.209 93.9383 234.133 94.0465C234.098 94.0465 234.062 94.0465 234.027 94.0465Z" fill="white"/>
<path d="M207.121 94.0465C207.465 93.5059 207.502 93.1089 207.547 91.2198C207.565 90.4731 207.583 89.7265 207.601 88.9798C207.716 88.9687 207.832 88.9574 207.947 88.9463C208.142 88.9276 208.294 88.9628 208.294 89.0263C208.294 89.0888 208.181 89.1398 208.043 89.1398C207.959 89.1398 207.875 89.1398 207.792 89.1398C207.773 89.8494 207.755 90.5591 207.736 91.2687C207.686 93.2158 207.661 93.425 207.454 93.722C207.378 93.8302 207.303 93.9383 207.227 94.0465C207.192 94.0465 207.156 94.0465 207.121 94.0465Z" fill="white"/>
<path d="M189.12 89.8865C189.12 91.3753 189.12 92.864 189.12 94.353C189.236 94.3673 189.351 94.3818 189.467 94.3961C189.767 94.4332 189.753 94.4414 189.36 94.4561C189.209 94.4618 189.058 94.4674 188.907 94.4731C188.907 93.7088 188.907 92.9442 188.907 92.1798C188.907 91.4154 188.907 90.6508 188.907 89.8865C188.978 89.8865 189.049 89.8865 189.12 89.8865Z" fill="white"/>
<path d="M191.68 93.0865C192.107 92.0198 192.533 90.9531 192.96 89.8865C192.96 89.9221 192.96 89.9575 192.96 89.9931C192.604 91.0242 192.249 92.0554 191.893 93.0865C191.822 93.0865 191.751 93.0865 191.68 93.0865Z" fill="white"/>
</svg>
